<svg version="1.1" id="Layer_1" xmlns="http://www.w3.org/2000/svg" xmlns:xlink="http://www.w3.org/1999/xlink" x="0px" y="0px"
	 width="100%" viewBox="0 0 82 80" enable-background="new 0 0 82 80" xml:space="preserve">
<path fill="#FDFFFE" opacity="1.000000" stroke="none" 
	d="
M82.000000,81.000000 
	C73.979103,81.000000 65.958199,81.000000 57.450710,80.651917 
	C47.572880,66.817268 38.181644,53.330700 28.000000,38.709042 
	C28.000000,53.887802 28.000000,67.443901 28.000000,81.000000 
	C19.645767,81.000000 11.291536,81.000000 2.466399,80.531349 
	C1.996996,53.708466 1.998498,27.354233 2.000000,1.000000 
	C10.020901,1.000000 18.041801,1.000000 26.540447,1.349001 
	C36.409389,15.181304 45.800583,28.664606 56.000000,43.308304 
	C56.000000,28.108967 56.000000,14.554483 56.000000,1.000000 
	C64.354233,1.000000 72.708466,1.000000 81.533585,1.468653 
	C82.002983,28.291536 82.001488,54.645767 82.000000,81.000000 
z"/>
<path fill="#06C85C" opacity="1.000000" stroke="none" 
	d="
M55.531342,1.000000 
	C56.000000,14.554483 56.000000,28.108967 56.000000,43.308304 
	C45.800583,28.664606 36.409389,15.181304 27.009098,1.349001 
	C36.354229,1.000000 45.708458,1.000000 55.531342,1.000000 
z"/>
<path fill="#06C85C" opacity="1.000000" stroke="none" 
	d="
M28.468657,81.000000 
	C28.000000,67.443901 28.000000,53.887802 28.000000,38.709042 
	C38.181644,53.330700 47.572880,66.817268 56.982059,80.651917 
	C47.645771,81.000000 38.291542,81.000000 28.468657,81.000000 
z"/>
<path fill="#5ADA93" opacity="1.000000" stroke="none" 
	d="
M1.500000,1.000000 
	C1.998498,27.354233 1.996996,53.708466 1.997747,80.531349 
	C1.666666,79.676895 1.045587,78.354439 1.042578,77.030579 
	C0.984968,51.687153 1.000000,26.343559 1.500000,1.000000 
z"/>
<path fill="#56D990" opacity="1.000000" stroke="none" 
	d="
M82.500000,81.000000 
	C82.001488,54.645767 82.002983,28.291536 82.002243,1.468653 
	C82.333328,2.333334 82.954361,3.666012 82.957413,5.000098 
	C83.015152,30.333300 83.000000,55.666668 82.500000,81.000000 
z"/>
</svg>